HIERARCHY
ROOT joint_0
{
	OFFSET 0.000000 0.000000 0.000000
	CHANNELS 6 Xposition Yposition Zposition Zrotation Yrotation Xrotation 
	JOINT joint_1
	{
		OFFSET 6.579712 -2.778931 100.531982
		CHANNELS 3 Zrotation Yrotation Xrotation
		JOINT joint_2
		{
			OFFSET -3.313232 -1.302856 91.974976
			CHANNELS 3 Zrotation Yrotation Xrotation
			JOINT joint_3
			{
				OFFSET -3.421509 -1.641846 91.864014
				CHANNELS 3 Zrotation Yrotation Xrotation
				JOINT joint_4
				{
					OFFSET 7.697388 -4.642578 123.278931
					CHANNELS 3 Zrotation Yrotation Xrotation
					JOINT joint_5
					{
						OFFSET 24.842529 -5.941528 79.695068
						CHANNELS 3 Zrotation Yrotation Xrotation
						End Site
						{
							OFFSET 0.000000 0.000000 0.000000
						}
					}
				}
				JOINT joint_6
				{
					OFFSET -0.159668 -29.112976 68.364014
					CHANNELS 3 Zrotation Yrotation Xrotation
					JOINT joint_7
					{
						OFFSET -18.356079 -115.987061 -20.069092
						CHANNELS 3 Zrotation Yrotation Xrotation
						JOINT joint_8
						{
							OFFSET 31.719482 -11.733276 -267.170898
							CHANNELS 3 Zrotation Yrotation Xrotation
							JOINT joint_9
							{
								OFFSET 29.329956 -5.879517 -234.654053
								CHANNELS 3 Zrotation Yrotation Xrotation
								End Site
								{
									OFFSET 0.000000 0.000000 0.000000
								}
							}
						}
					}
				}
				JOINT joint_10
				{
					OFFSET 8.802979 23.897949 69.798950
					CHANNELS 3 Zrotation Yrotation Xrotation
					JOINT joint_11
					{
						OFFSET 21.159058 115.524292 -19.981934
						CHANNELS 3 Zrotation Yrotation Xrotation
						JOINT joint_12
						{
							OFFSET 18.809204 5.403442 -268.593018
							CHANNELS 3 Zrotation Yrotation Xrotation
							JOINT joint_13
							{
								OFFSET 20.807861 0.421265 -235.639038
								CHANNELS 3 Zrotation Yrotation Xrotation
								End Site
								{
									OFFSET 0.000000 0.000000 0.000000
								}
							}
						}
					}
				}
			}
		}
	}
	JOINT joint_14
	{
		OFFSET -9.713379 -79.513916 -99.348022
		CHANNELS 3 Zrotation Yrotation Xrotation
		JOINT joint_15
		{
			OFFSET -40.607788 -6.518372 -502.938019
			CHANNELS 3 Zrotation Yrotation Xrotation
			JOINT joint_16
			{
				OFFSET -19.807617 -7.437378 -399.590012
				CHANNELS 3 Zrotation Yrotation Xrotation
				JOINT joint_17
				{
					OFFSET 171.701660 -44.751282 -77.782000
					CHANNELS 3 Zrotation Yrotation Xrotation
					End Site
					{
						OFFSET 0.000000 0.000000 0.000000
					}
				}
			}
		}
	}
	JOINT joint_18
	{
		OFFSET 17.854858 79.618652 -98.128052
		CHANNELS 3 Zrotation Yrotation Xrotation
		JOINT joint_19
		{
			OFFSET -24.848877 16.861816 -503.722992
			CHANNELS 3 Zrotation Yrotation Xrotation
			JOINT joint_20
			{
				OFFSET -30.162476 14.470093 -398.750008
				CHANNELS 3 Zrotation Yrotation Xrotation
				JOINT joint_21
				{
					OFFSET 176.096680 -10.987549 -80.021000
					CHANNELS 3 Zrotation Yrotation Xrotation
					End Site
					{
						OFFSET 0.000000 0.000000 0.000000
					}
				}
			}
		}
	}
}
MOTION
Frames: 7
Frame Time: 0.016667
-1653.640747 871.270691 1097.995972 1.755308 7.538764 1.449124 0.251217 2.112848 -1.005604 -0.377010 -0.247884 0.245061 -0.539505 0.325100 -0.081409 -1.518268 -8.842608 2.397923 0.000000 0.000000 0.000000 2.406397 8.679029 -6.577975 -0.896386 0.559498 6.433919 -177.856930 -67.420277 -173.158247 0.000000 0.000000 0.000000 2.228776 -3.894337 4.020228 -5.241234 3.910501 -15.008895 -5.767110 -86.818207 -3.399202 0.000000 0.000000 0.000000 -0.327934 -28.480383 -7.638477 1.588412 47.952420 6.832748 5.250633 -7.517510 0.046767 0.000000 0.000000 0.000000 1.620479 -7.530838 -0.851912 3.340311 15.979276 2.604951 3.608310 -6.888136 1.085249 0.000000 0.000000 0.000000 
-1635.367065 867.845520 1096.214966 0.131418 7.433683 1.635079 0.859585 1.978131 -1.173161 0.138332 -0.246671 0.272370 -0.054001 0.321239 -0.114550 -1.604588 -8.911797 2.703977 0.000000 0.000000 0.000000 1.915231 9.671775 -6.335485 -0.345106 0.631290 6.756710 -177.164806 -67.143677 -172.692839 0.000000 0.000000 0.000000 3.371473 -3.424118 3.399051 -6.077889 4.365642 -14.815315 -6.168349 -88.332723 -2.178451 0.000000 0.000000 0.000000 -0.912241 -30.130795 -7.887029 1.072730 50.074695 5.927268 2.660831 -8.102454 -1.104901 0.000000 0.000000 0.000000 1.952113 -6.869475 -0.968186 3.631489 17.536695 2.773015 3.944429 -7.205418 1.191302 0.000000 0.000000 0.000000 
-1618.081421 864.722778 1095.161011 -1.093675 7.919973 2.018915 0.917880 1.195232 -1.438857 0.391621 -0.098564 0.356039 0.227072 0.157277 -0.207502 -1.585139 -8.912248 2.713143 0.000000 0.000000 0.000000 1.184597 10.223559 -6.335656 0.347386 0.622017 6.836408 -176.434592 -67.246468 -172.321562 0.000000 0.000000 0.000000 4.234303 -2.317491 3.501145 -6.534816 5.236033 -14.990501 173.797183 -89.798683 179.019004 0.000000 0.000000 0.000000 -1.564571 -32.648160 -8.832239 0.478986 51.425000 5.769371 -0.226414 -8.905425 -2.420842 0.000000 0.000000 0.000000 2.121635 -6.984563 -1.413732 3.894557 19.054725 3.063287 4.281059 -7.072112 1.323591 0.000000 0.000000 0.000000 
-1601.411499 861.533203 1094.531006 -2.047447 8.639633 2.534114 0.653666 0.196221 -1.762504 0.513048 0.065647 0.491287 0.401706 -0.080693 -0.328111 -1.507389 -8.856314 2.556528 0.000000 0.000000 0.000000 0.242866 10.531756 -6.500088 1.261471 0.604077 6.898783 -175.634010 -67.831874 -172.158005 0.000000 0.000000 0.000000 4.995130 -0.839140 3.903242 -6.731942 6.260577 -15.238961 173.958184 -87.839032 -179.877879 0.000000 0.000000 0.000000 -2.270245 -35.527637 -10.079458 -0.249980 51.891964 5.916517 -3.334497 -9.949591 -3.890336 0.000000 0.000000 0.000000 2.168468 -7.450998 -2.031666 4.109610 20.564782 3.395701 4.577863 -6.597989 1.458824 0.000000 0.000000 0.000000 
-1585.615845 858.206360 1094.280029 -2.788339 9.146150 3.010620 0.492022 -0.378566 -1.841195 0.636335 0.110124 0.551557 0.568583 -0.203899 -0.376953 -1.456325 -8.775026 2.459554 0.000000 0.000000 0.000000 -0.766194 10.847289 -6.774610 2.128140 0.603653 6.913673 -174.885219 -67.774982 -171.885765 0.000000 0.000000 0.000000 5.724372 0.515520 4.095797 -6.876213 7.147051 -15.273130 174.099820 -86.315676 -179.173787 0.000000 0.000000 0.000000 -2.711155 -37.930088 -11.095974 -0.829993 51.150985 5.776132 -5.513881 -10.804434 -4.958310 0.000000 0.000000 0.000000 2.198826 -7.614932 -2.534004 4.220662 21.715621 3.611913 4.730219 -5.867046 1.552028 0.000000 0.000000 0.000000 
-1571.060181 855.005676 1094.793945 -3.543055 9.346223 3.386635 0.780822 -0.181151 -1.485832 0.867792 -0.012778 0.449610 0.809734 -0.086209 -0.278994 -1.469228 -8.740102 2.516295 0.000000 0.000000 0.000000 -1.970231 11.195485 -7.203083 2.875875 0.633866 6.785505 -174.188265 -66.366407 -171.270655 0.000000 0.000000 0.000000 6.405452 1.582987 3.852583 -7.083613 7.799304 -15.000714 174.128773 -85.354546 -179.009466 0.000000 0.000000 0.000000 -2.770241 -39.609420 -11.652763 -1.182071 48.747345 4.930711 -6.374166 -10.835272 -5.287161 0.000000 0.000000 0.000000 2.317036 -7.218762 -2.852985 4.230463 22.187716 3.639184 4.698941 -4.839145 1.593521 0.000000 0.000000 0.000000 
-1557.377686 851.668701 1095.687988 -4.109898 9.331434 3.741241 1.250482 0.436603 -0.926289 1.085745 -0.232592 0.261494 1.015685 0.119190 -0.098797 -1.507174 -8.675206 2.648269 0.000000 0.000000 0.000000 -3.282031 11.530586 -7.712919 3.614385 0.681303 6.608789 -173.507688 -64.374739 -170.541686 0.000000 0.000000 0.000000 6.999605 2.516768 3.421044 -7.257898 8.328951 -14.472750 174.140368 -84.829134 -179.198382 0.000000 0.000000 0.000000 -2.640594 -40.657928 -12.062339 -1.444235 44.977549 3.848002 -6.302033 -10.036282 -5.034789 0.000000 0.000000 0.000000 2.425850 -6.518601 -3.081339 4.128922 22.310238 3.589691 4.527389 -3.626549 1.592530 0.000000 0.000000 0.000000 
